<svg xmlns="http://www.w3.org/2000/svg" width="499.144" height="449.807" viewBox="0 0 499.144 449.807">
    <g id="Lines" transform="translate(-661.415 -281.255)">
        <path id="Path_2001" data-name="Path 2001" d="M6912.838-1715.032l-44.193,42.086" transform="translate(-6152.599 2002.067)" fill="none" stroke="#222" stroke-width="1"/>
        <path id="Path_2002" data-name="Path 2002" d="M6919.441-1720l-76.075,72.447" transform="translate(-6133.951 2001.962)" fill="none" stroke="#222" stroke-linecap="round" stroke-width="1"/>
        <path id="Path_2003" data-name="Path 2003" d="M6916.775-1719.236l-95.679,91.117" transform="translate(-6111.682 2001.979)" fill="none" stroke="#222" stroke-linecap="round" stroke-width="1"/>
        <path id="Path_2004" data-name="Path 2004" d="M6913.08-1715.414l-110.991,105.7" transform="translate(-6091.66 2002.059)" fill="none" stroke="#222" stroke-linecap="round" stroke-width="1"/>
        <path id="Path_2005" data-name="Path 2005" d="M6906.625-1709.109,6787.59-1595.75" transform="translate(-6071.543 2002.193)" fill="#222" stroke="#222" stroke-linecap="round" stroke-width="1"/>
        <path id="Path_2006" data-name="Path 2006" d="M6899.513-1702.231,6775.151-1583.8" transform="translate(-6051.383 2002.338)" fill="#222" stroke="#222" stroke-linecap="round" stroke-width="1"/>
        <path id="Path_2007" data-name="Path 2007" d="M6891.757-1694.779l-127.646,121.56" transform="translate(-6031.194 2002.496)" fill="#222" stroke="#222" stroke-linecap="round" stroke-width="1"/>
        <path id="Path_2008" data-name="Path 2008" d="M6884.609-1687.9,6753.3-1562.85" transform="translate(-6011 2002.642)" fill="#222" stroke="#222" stroke-linecap="round" stroke-width="1"/>
        <path id="Path_2009" data-name="Path 2009" d="M6878.1-1681.6l-136.655,130.139" transform="translate(-5990.827 2002.775)" fill="#222" stroke="#222" stroke-linecap="round" stroke-width="1"/>
        <path id="Path_2010" data-name="Path 2010" d="M6960.127-1675.29l-145.76,138.644" transform="translate(-6058.466 2002.384)" fill="#222" stroke="#222" stroke-linecap="round" stroke-width="1"/>
        <path id="Path_2011" data-name="Path 2011" d="M6957.242-1670.7,6794.981-1516.18l-14.57,13.876" transform="translate(-6040.801 2003.005)" fill="#222" stroke="#222" stroke-linecap="round" stroke-width="1"/>
        <path id="Path_2012" data-name="Path 2012" d="M6863.946-1666.119l-269.164,256.33" transform="translate(-5932.661 2003.734)" fill="#222" stroke="#222" stroke-linecap="round" stroke-width="1"/>
        <path id="Path_2013" data-name="Path 2013" d="M6858.369-1660.387,6576.124-1391.6" transform="translate(-5912.634 2003.689)" fill="#222" stroke="#222" stroke-linecap="round" stroke-width="1"/>
        <path id="Path_2014" data-name="Path 2014" d="M6852.542-1654.655l-292.67,278.715" transform="translate(-5892.554 2003.834)" fill="#222" stroke="#222" stroke-linecap="round" stroke-width="1"/>
        <path id="Path_2015" data-name="Path 2015" d="M6846.44-1648.541l-301.617,287.235" transform="translate(-5872.448 2003.833)" fill="#222" stroke="#222" stroke-linecap="round" stroke-width="1"/>
        <path id="Path_2016" data-name="Path 2016" d="M6841.93-1644.338l-311.552,296.7" transform="translate(-5852.331 2004.217)" fill="none" stroke="#222" stroke-linecap="round" stroke-width="1"/>
        <path id="Path_2017" data-name="Path 2017" d="M6840.657-1642.809l-323.52,308.078" transform="translate(-5832.188 2004.184)" fill="none" stroke="#222" stroke-linecap="round" stroke-width="1"/>
        <path id="Path_2018" data-name="Path 2018" d="M6844.8-1645.861l-340.3,324.074" transform="translate(-5812.032 2003.531)" fill="none" stroke="#222" stroke-linecap="round" stroke-width="1"/>
        <path id="Path_2019" data-name="Path 2019" d="M6883.153-1681.4l-390.092,371.492" transform="translate(-5791.851 2002.779)" fill="none" stroke="#222" stroke-linecap="round" stroke-width="1"/>
        <path id="Path_2020" data-name="Path 2020" d="M6875.584-1674.144l-392.755,374.028" transform="translate(-5771.645 2002.933)" fill="none" stroke="#222" stroke-linecap="round" stroke-width="1"/>
        <path id="Path_2021" data-name="Path 2021" d="M6865.9-1664.973l-390.3,371.687" transform="translate(-5751.374 2003.127)" fill="none" stroke="#222" stroke-linecap="round" stroke-width="1"/>
        <path id="Path_2022" data-name="Path 2022" d="M6854.736-1655.037,6470.791-1289.4" transform="translate(-5730.438 2003.337)" fill="none" stroke="#222" stroke-linecap="round" stroke-width="1"/>
        <path id="Path_2023" data-name="Path 2023" d="M6840.586-1641.281l-369.194,351.59" transform="translate(-5710.615 2003.628)" fill="none" stroke="#222" stroke-linecap="round" stroke-width="1"/>
        <path id="Path_2024" data-name="Path 2024" d="M6495.66-1315.9l-21.858,20.816" transform="translate(-5691.99 2008.443)" fill="none" stroke="#222" stroke-linecap="round" stroke-width="1"/>
        <path id="Path_2025" data-name="Path 2025" d="M6804.049-1606.507l-274.874,261.768" transform="translate(-5670.52 2004.365)" fill="none" stroke="#222" stroke-linecap="round" stroke-width="1"/>
        <path id="Path_2026" data-name="Path 2026" d="M6721.07-1530.844l-197.914,188.477" transform="translate(-5648.25 2005.966)" fill="none" stroke="#222" stroke-linecap="round" stroke-width="1"/>
        <path id="Path_2027" data-name="Path 2027" d="M6710.285-1521.291l-193.147,183.673" transform="translate(-5629.018 2008.081)" fill="none" stroke="#222" stroke-linecap="round" stroke-width="1"/>
        <path id="Path_2028" data-name="Path 2028" d="M6701.58-1511.737l-192.267,183.1" transform="translate(-5609.095 2007.033)" fill="none" stroke="#222" stroke-linecap="round" stroke-width="1"/>
        <path id="Path_2029" data-name="Path 2029" d="M6693.646-1506.179,6499.08-1320.89" transform="translate(-5587.489 2007.902)" fill="none" stroke="#222" stroke-linecap="round" stroke-width="1"/>
        <path id="Path_2030" data-name="Path 2030" d="M6688.158-1500.272l-197.5,188.087" transform="translate(-5567.245 2007.392)" fill="none" stroke="#222" stroke-linecap="round" stroke-width="1"/>
        <path id="Path_2031" data-name="Path 2031" d="M6682.5-1494.888l-201.474,191.867" transform="translate(-5547.025 2007.594)" fill="none" stroke="#222" stroke-linecap="round" stroke-width="1"/>
        <path id="Path_2032" data-name="Path 2032" d="M6672.378-1489l-32.229,30.693" transform="translate(-5523.234 2008.135)" fill="none" stroke="#222" stroke-linecap="round" stroke-width="1"/>
        <path id="Path_2033" data-name="Path 2033" d="M6587.348-1403.482l-122.375,116.541" transform="translate(-5506.519 2007.123)" fill="none" stroke="#222" stroke-linecap="round" stroke-width="1"/>
        <path id="Path_2034" data-name="Path 2034" d="M6503.523-1325.468l-45.974,43.781" transform="translate(-5486.252 2009.088)" fill="none" stroke="#222" stroke-linecap="round" stroke-width="1"/>
        <path id="Path_2035" data-name="Path 2035" d="M6482.507-1305.385l-27.366,26.061" transform="translate(-5466.523 2009.68)" fill="none" stroke="#222" stroke-linecap="round" stroke-width="1"/>
        <path id="Path_2036" data-name="Path 2036" d="M6775.04-1501.633,6727-1455.884" transform="translate(-6060.316 2006.585)" fill="#222" stroke="#222" stroke-linecap="round" stroke-width="1"/>
        <path id="Path_2037" data-name="Path 2037" d="M6782.017-1505.795,6704.528-1432" transform="translate(-6042.407 2006.496)" fill="#222" stroke="#222" stroke-linecap="round" stroke-width="1"/>
        <path id="Path_2038" data-name="Path 2038" d="M6879.475-1685.226l-19.051,18.142" transform="translate(-5804.498 2002.698)" fill="none" stroke="#222" stroke-linecap="round" stroke-width="1"/>
        <path id="Path_2039" data-name="Path 2039" d="M6662.586-1478.683l-18.881,17.981" transform="translate(-5502.735 2007.07)" fill="none" stroke="#222" stroke-linecap="round" stroke-width="1"/>
        <path id="Path_2040" data-name="Path 2040" d="M6826.053-1626.76l-296.282,282.154" transform="translate(-5691.228 2003.936)" fill="none" stroke="#222" stroke-linecap="round" stroke-width="1"/>
        <path id="Path_2041" data-name="Path 2041" d="M6598.088-1416.412,6472.6-1296.9" transform="translate(-5526.781 2009.672)" fill="none" stroke="#222" stroke-linecap="round" stroke-width="1"/>
    </g>
</svg>
