<svg xmlns="http://www.w3.org/2000/svg" width="66.069" height="66.069" viewBox="0 0 66.069 66.069">
  <defs>
    <style>
      .cls-1 {
        fill: #857852;
      }
    </style>
  </defs>
  <path id="rectangle" class="cls-1" d="M9.009,2A7.015,7.015,0,0,0,2,9.009V57.06a7.015,7.015,0,0,0,7.007,7.007H57.06a7.015,7.015,0,0,0,7.007-7.007V9.009A7.015,7.015,0,0,0,57.06,2H9.009m0-2H57.06a9.009,9.009,0,0,1,9.009,9.009V57.06a9.009,9.009,0,0,1-9.009,9.009H9.009A9.009,9.009,0,0,1,0,57.06V9.009A9.009,9.009,0,0,1,9.009,0Z"/>
</svg>
