<svg xmlns="http://www.w3.org/2000/svg" width="81.064" height="72.286" viewBox="0 0 81.064 72.286">
  <defs>
    <style>
      .cls-1 {
        fill: #857852;
      }
    </style>
  </defs>
  <path id="triangle" class="cls-1" d="M44.158,7.047a4.413,4.413,0,0,0-3.868,2.24L6.227,68.654A4.459,4.459,0,0,0,10.1,75.333H78.221a4.459,4.459,0,0,0,3.868-6.679L48.026,9.287a4.413,4.413,0,0,0-3.868-2.24m0-2a6.4,6.4,0,0,1,5.6,3.245L83.824,67.659a6.459,6.459,0,0,1-5.6,9.674H10.1a6.459,6.459,0,0,1-5.6-9.674L38.555,8.292A6.4,6.4,0,0,1,44.158,5.047Z" transform="translate(-3.626 -5.047)"/>
</svg>
