<svg xmlns="http://www.w3.org/2000/svg" width="76.433" height="74.286" viewBox="0 0 76.433 74.286">
  <defs>
    <style>
      .cls-1 {
        fill: #857852;
      }
    </style>
  </defs>
  <path id="square" class="cls-1" d="M4658.6-1284.607h0a10.049,10.049,0,0,1-7.391-3.618,10.893,10.893,0,0,1-3.346-7.911,11.373,11.373,0,0,1,3.382-7.289l18.256-18.257-18.24-18.241a10.748,10.748,0,0,1-3.555-7c-.169-2.818,1.01-5.585,3.507-8.224,2.352-2.487,4.893-3.748,7.552-3.748,4.315,0,7.347,3.34,7.707,3.755l19.436,19.436,19.448-19.447a11.3,11.3,0,0,1,7.7-3.54,10.648,10.648,0,0,1,7.529,3.521c2.421,2.408,3.611,5.015,3.539,7.749a11.428,11.428,0,0,1-3.554,7.483l-18.251,18.252,18.3,18.3a13.714,13.714,0,0,1,2.685,4.768,9.9,9.9,0,0,1-2.705,10.41,9.929,9.929,0,0,1-7.21,3.275,13,13,0,0,1-7.979-3.241l-.027-.026-19.465-19.463-19.451,19.451C4666.176-1287.916,4662.965-1284.607,4658.6-1284.607Zm.165-72.286c-2.088,0-4.14,1.05-6.1,3.122-2.1,2.216-3.093,4.473-2.965,6.711a8.858,8.858,0,0,0,2.879,5.633l.036.03.03.031,19.683,19.683-19.713,19.713a9.48,9.48,0,0,0-2.755,5.929,8.988,8.988,0,0,0,2.81,6.45,8.142,8.142,0,0,0,5.929,2.983c3.609,0,6.375-2.95,6.4-2.979l.027-.029,20.877-20.877,20.862,20.86a11.1,11.1,0,0,0,6.61,2.7,8,8,0,0,0,5.783-2.676,7.941,7.941,0,0,0,2.225-8.409,11.773,11.773,0,0,0-2.234-4l-19.666-19.667,19.723-19.722a9.55,9.55,0,0,0,2.911-6.083c.052-2.156-.94-4.262-2.95-6.261a8.739,8.739,0,0,0-6.119-2.939,9.433,9.433,0,0,0-6.229,2.9l-.037.039-20.879,20.878L4665-1353.781l-.028-.033C4664.946-1353.844,4662.32-1356.893,4658.764-1356.893Z" transform="translate(-4647.689 1358.893)"/>
</svg>
