<svg xmlns="http://www.w3.org/2000/svg" xmlns:xlink="http://www.w3.org/1999/xlink" width="112" height="112" viewBox="0 0 112 112"><defs><style>.a{fill:#fff;}.b{fill:#222;}.c{fill:#756d55;}.d{clip-path:url(#a);}.e{fill:#857852;}.f,.h,.j{fill:none;}.f{stroke:#756d55;}.g{clip-path:url(#b);}.h{stroke:#857852;}.i{stroke:none;}</style><clipPath id="a"><path class="a" d="M23.072,79.376H63.863v45.193l-40.791-18.13Z" transform="translate(1.379 -31.362)"/></clipPath><clipPath id="b"><path class="a" d="M33.066,129.838h103.14v81.741L33.066,166.1Z" transform="translate(-4913.394 1973.488)"/></clipPath></defs><g transform="translate(4885 -2099)"><circle class="b" cx="56" cy="56" r="56" transform="translate(-4885 2099)"/><g transform="translate(-4875.838 2075.893)"><g transform="translate(7.29 9.113)"><path class="c" d="M40.684-28.918A102.481,102.481,0,0,1,31.99-16.9,107.785,107.785,0,0,1,19.2-3.9a70.854,70.854,0,0,1,6.438,6.028q3.322,3.486,6.479,7.5t6.11,8.366a91.848,91.848,0,0,1,5.249,8.694H35.107a2.608,2.608,0,0,1-2.05-.738,7.177,7.177,0,0,1-1.066-1.558A151.155,151.155,0,0,0,22.107,10.9,118.568,118.568,0,0,0,12.225.115V26.688H5.335q-2.05,0-2.05-1.968V-32.445h6.889q2.05,0,2.05,1.968V-7.02q2.624-2.46,5.413-5.372t5.454-6.192q2.665-3.281,5.208-6.766t4.757-7.094h6.479q1.8,0,1.8,1.64A4.518,4.518,0,0,1,40.684-28.918Z" transform="translate(17.283 73.553)"/></g><g class="d" transform="translate(1.181 0.846)"><g transform="translate(6.11 8.267)"><path class="e" d="M40.684-28.918A102.481,102.481,0,0,1,31.99-16.9,107.785,107.785,0,0,1,19.2-3.9a70.854,70.854,0,0,1,6.438,6.028q3.322,3.486,6.479,7.5t6.11,8.366a91.848,91.848,0,0,1,5.249,8.694H35.107a2.608,2.608,0,0,1-2.05-.738,7.177,7.177,0,0,1-1.066-1.558A151.155,151.155,0,0,0,22.107,10.9,118.568,118.568,0,0,0,12.225.115V26.688H5.335q-2.05,0-2.05-1.968V-32.445h6.889q2.05,0,2.05,1.968V-7.02q2.624-2.46,5.413-5.372t5.454-6.192q2.665-3.281,5.208-6.766t4.757-7.094h6.479q1.8,0,1.8,1.64A4.518,4.518,0,0,1,40.684-28.918Z" transform="translate(17.283 73.553)"/></g></g><g class="f" transform="translate(-4.162 29.107)"><circle class="i" cx="51" cy="51" r="51"/><circle class="j" cx="51" cy="51" r="50.5"/></g><g class="g" transform="translate(4875.838 -2075.893)"><g class="h" transform="translate(-4880 2105)"><circle class="i" cx="51" cy="51" r="51"/><circle class="j" cx="51" cy="51" r="50.5"/></g></g></g></g></svg>