<svg xmlns="http://www.w3.org/2000/svg" width="24.439" height="33.338" viewBox="0 0 24.439 33.338">
  <defs>
    <style>
      .cls-1 {
        fill: #fff;
      }

      .cls-2 {
        fill: #756d55;
      }

      .cls-3 {
        clip-path: url(#clip-path);
      }

      .cls-4 {
        fill: #857852;
      }
    </style>
    <clipPath id="clip-path">
      <path id="top" class="cls-1" d="M33.864,39.572V65.089L9.57,53.593V39.572Z" transform="translate(938.326 -6.91)"/>
    </clipPath>
  </defs>
  <g transform="translate(-947.896 -32.662)">
    <g>
      <path class="cls-2" d="M23.805-30.51a56.23,56.23,0,0,1-4.77,6.593,59.14,59.14,0,0,1-7.02,7.132,38.877,38.877,0,0,1,3.532,3.308Q17.37-11.565,19.1-9.36t3.352,4.59A50.4,50.4,0,0,1,25.335,0h-4.59A1.431,1.431,0,0,1,19.62-.405a3.938,3.938,0,0,1-.585-.855,82.936,82.936,0,0,0-5.422-7.4A65.056,65.056,0,0,0,8.19-14.58V0H4.41Q3.285,0,3.285-1.08V-32.445h3.78q1.125,0,1.125,1.08V-18.5q1.44-1.35,2.97-2.948t2.992-3.4q1.462-1.8,2.858-3.712t2.61-3.892h3.555q.99,0,.99.9A2.479,2.479,0,0,1,23.805-30.51Z" transform="translate(947 66)"/>
    </g>
    <g class="cls-3">
      <g id="bottom">
        <path class="cls-4" d="M23.805-30.51a56.23,56.23,0,0,1-4.77,6.593,59.14,59.14,0,0,1-7.02,7.132,38.877,38.877,0,0,1,3.532,3.308Q17.37-11.565,19.1-9.36t3.352,4.59A50.4,50.4,0,0,1,25.335,0h-4.59A1.431,1.431,0,0,1,19.62-.405a3.938,3.938,0,0,1-.585-.855,82.936,82.936,0,0,0-5.422-7.4A65.056,65.056,0,0,0,8.19-14.58V0H4.41Q3.285,0,3.285-1.08V-32.445h3.78q1.125,0,1.125,1.08V-18.5q1.44-1.35,2.97-2.948t2.992-3.4q1.462-1.8,2.858-3.712t2.61-3.892h3.555q.99,0,.99.9A2.479,2.479,0,0,1,23.805-30.51Z" transform="translate(947 66)"/>
      </g>
    </g>
  </g>
</svg>
