<svg xmlns="http://www.w3.org/2000/svg" width="50" height="90" viewBox="0 0 50 90"><defs><style>.a{fill:#fff;}.b{fill:url(#a);}.c,.f,.i{fill:none;}.c{stroke:#756d55;}.d{fill:#756d55;}.e{clip-path:url(#b);}.f{stroke:#857852;}.g{fill:#857852;}.h{stroke:none;}</style><linearGradient id="a" x1="0.5" x2="0.5" y2="1"><stop offset="0" stop-color="#171717"/><stop offset="1" stop-color="#161616"/></linearGradient><clipPath id="b"><path class="a" d="M3.29,15.5H47.38V67.574L3.29,54.455Z" transform="translate(934.82 -9.43)"/></clipPath></defs><g transform="translate(-935)"><path class="b" d="M0,0H50a0,0,0,0,1,0,0V83a7,7,0,0,1-7,7H7a7,7,0,0,1-7-7V0A0,0,0,0,1,0,0Z" transform="translate(935)"/><g class="c" transform="translate(939 11)"><rect class="h" width="42" height="75" rx="7"/><rect class="i" x="0.5" y="0.5" width="41" height="74" rx="6.5"/></g><path class="d" d="M23.805-30.51a56.23,56.23,0,0,1-4.77,6.593,59.14,59.14,0,0,1-7.02,7.132,38.877,38.877,0,0,1,3.532,3.308Q17.37-11.565,19.1-9.36t3.352,4.59A50.4,50.4,0,0,1,25.335,0h-4.59A1.431,1.431,0,0,1,19.62-.405a3.938,3.938,0,0,1-.585-.855,82.936,82.936,0,0,0-5.422-7.4A65.056,65.056,0,0,0,8.19-14.58V0H4.41Q3.285,0,3.285-1.08V-32.445h3.78q1.125,0,1.125,1.08V-18.5q1.44-1.35,2.97-2.948t2.992-3.4q1.462-1.8,2.858-3.712t2.61-3.892h3.555q.99,0,.99.9A2.479,2.479,0,0,1,23.805-30.51Z" transform="translate(947 66)"/><g class="e"><g class="f" transform="translate(939 11)"><rect class="h" width="42" height="75" rx="7"/><rect class="i" x="0.5" y="0.5" width="41" height="74" rx="6.5"/></g><path class="g" d="M23.805-30.51a56.23,56.23,0,0,1-4.77,6.593,59.14,59.14,0,0,1-7.02,7.132,38.877,38.877,0,0,1,3.532,3.308Q17.37-11.565,19.1-9.36t3.352,4.59A50.4,50.4,0,0,1,25.335,0h-4.59A1.431,1.431,0,0,1,19.62-.405a3.938,3.938,0,0,1-.585-.855,82.936,82.936,0,0,0-5.422-7.4A65.056,65.056,0,0,0,8.19-14.58V0H4.41Q3.285,0,3.285-1.08V-32.445h3.78q1.125,0,1.125,1.08V-18.5q1.44-1.35,2.97-2.948t2.992-3.4q1.462-1.8,2.858-3.712t2.61-3.892h3.555q.99,0,.99.9A2.479,2.479,0,0,1,23.805-30.51Z" transform="translate(947 66)"/></g></g></svg>
