<svg xmlns="http://www.w3.org/2000/svg" xmlns:xlink="http://www.w3.org/1999/xlink" width="489.468" height="439.625" viewBox="0 0 489.468 439.625">
    <defs>
        <filter id="bg">
            <feOffset dy="3"/>
            <feGaussianBlur stdDeviation="3" result="blur"/>
            <feFlood flood-opacity="0.412" result="color"/>
            <feComposite operator="out" in="SourceGraphic" in2="blur"/>
            <feComposite operator="in" in="color"/>
            <feComposite operator="in" in2="SourceGraphic"/>
        </filter>
    </defs>
    <g>
        <path id="bg-2" d="M3449.478-2506.46c-60.012-18.923-87.744-57.85-138.257-47.577s-59.2,40.008-63.8,88.667,54.335,67.041,45.415,105.968-63.8,3.785-81.1,49.74-12.976,89.478,11.894,134.082,46.767,47.036,87.586,44.333,22.978-58.931,75.691-55.146,92.181,70.285,135.163,70.285,13.786-42.711,36.764-70.285,43.793-17.031,55.147-40.008c5.68-11.5-28.925-31.088-9.732-51.9s86.5-8.65,86.5-31.358-80.016-25.951-86.5-59.472,58.12-37.034,60.553-74.61-22.437-67.041-50.821-75.691-21.589,37.846-62.716,41.09S3509.49-2487.538,3449.478-2506.46Z" transform="translate(-3201.29 2555.735)" fill="#1b1b1b"/>
        <g transform="matrix(1, 0, 0, 1, 0, 0)" filter="url(#bg)">
            <path id="bg-3" d="M3449.478-2506.46c-60.012-18.923-87.744-57.85-138.257-47.577s-59.2,40.008-63.8,88.667,54.335,67.041,45.415,105.968-63.8,3.785-81.1,49.74-12.976,89.478,11.894,134.082,46.767,47.036,87.586,44.333,22.978-58.931,75.691-55.146,92.181,70.285,135.163,70.285,13.786-42.711,36.764-70.285,43.793-17.031,55.147-40.008c5.68-11.5-28.925-31.088-9.732-51.9s86.5-8.65,86.5-31.358-80.016-25.951-86.5-59.472,58.12-37.034,60.553-74.61-22.437-67.041-50.821-75.691-21.589,37.846-62.716,41.09S3509.49-2487.538,3449.478-2506.46Z" transform="translate(-3201.29 2555.74)" fill="#fff"/>
        </g>
    </g>
</svg>
