<svg fill="none" stroke="#fff" stroke-width="2px" xmlns="http://www.w3.org/2000/svg" width="31.943" height="28.616" viewBox="0 0 31.943 28.616">
  <path d="M27,15.005c-2.158,0-3.093,1.642-4.266,1.642-3.118,0-.28-9.162-.28-9.162s-10.2,4.159-10.2-.171c0-1.862,1.886-2.4,1.886-4.47C14.14,1,12.678,0,10.945,0c-1.8,0-3.45.982-3.45,2.929,0,2.15,1.648,3.081,1.648,4.25C9.143,10.8,0,8.669,0,8.669V25.992s9.286,2.134,9.286-1.49c0-1.168-2.079-2.085-2.079-4.235,0-1.947,1.521-2.929,3.305-2.929,1.75,0,3.212,1,3.212,2.844,0,2.066-1.886,2.607-1.886,4.47,0,3.161,6.741,1.338,9.421,1.338,0,0-1.805-6.243,1.343-6.243,1.869,0,2.413,1.879,4.487,1.879,1.852,0,2.855-1.456,2.855-3.2C29.943,16.648,28.957,15.005,27,15.005Z" transform="translate(1 1)"/>
</svg>
