<svg fill="#fff" xmlns="http://www.w3.org/2000/svg" width="31.519" height="21.984" viewBox="0 0 31.519 21.984">
  <path d="M3.382,34.759,13.717,45.095a.592.592,0,0,1,0,.838L3.382,56.268a.592.592,0,0,1-.838,0l-.977-.977a.592.592,0,0,1,0-.838l8.918-8.94-8.918-8.94a.592.592,0,0,1,0-.838l.977-.977A.592.592,0,0,1,3.382,34.759Zm29.53,21.218V54.595A.592.592,0,0,0,32.32,54H16.131a.592.592,0,0,0-.592.592v1.382a.592.592,0,0,0,.592.592H32.32A.592.592,0,0,0,32.912,55.977Z" transform="translate(-1.393 -34.586)"/>
</svg>
