<svg fill="#fff" xmlns="http://www.w3.org/2000/svg" width="27.637" height="27.637" viewBox="0 0 27.637 27.637">
  <path d="M27.078,24.4,3.234.559A1.855,1.855,0,0,0,1.908,0,1.893,1.893,0,0,0,0,1.9V25.742a1.894,1.894,0,0,0,1.895,1.895H25.738a1.9,1.9,0,0,0,1.34-3.234Zm-1.185,1.4a.144.144,0,0,1-.154.1H1.895a.167.167,0,0,1-.167-.167V1.9a.173.173,0,0,1,.181-.171.135.135,0,0,1,.1.053L6,5.763l-.916.916a.432.432,0,0,0,0,.61l.611.61a.433.433,0,0,0,.611,0l.916-.916L9.661,9.427l-.916.916a.432.432,0,0,0,0,.61l.61.61a.433.433,0,0,0,.611,0l.916-.916,2.443,2.443-.916.916a.432.432,0,0,0,0,.61l.61.61a.433.433,0,0,0,.611,0l.916-.916,2.442,2.442-.916.916a.432.432,0,0,0,0,.61l.61.61a.433.433,0,0,0,.611,0l.916-.916,2.442,2.442-.916.916a.432.432,0,0,0,0,.61l.61.61a.433.433,0,0,0,.611,0l.916-.916,3.983,3.983a.149.149,0,0,1,.035.184ZM6.656,12.344a.863.863,0,0,0-1.474.61v8.636a.863.863,0,0,0,.864.864h8.636a.864.864,0,0,0,.61-1.475L6.656,12.344Zm.253,8.383V15.039L12.6,20.727H6.909Z"/>
</svg>
