<svg fill="#fff" xmlns="http://www.w3.org/2000/svg" width="15.77" height="15.984" viewBox="0 0 15.77 15.984">
  <path d="M8.138.277A7.939,7.939,0,0,0,.253,8.269a7.939,7.939,0,0,0,7.885,7.992,7.939,7.939,0,0,0,7.885-7.992A7.939,7.939,0,0,0,8.138.277h0ZM11.754,11.8a.487.487,0,0,1-.676.165,8.966,8.966,0,0,0-6.927-.77.492.492,0,0,1-.588-.375.5.5,0,0,1,.37-.6,9.89,9.89,0,0,1,7.658.891A.5.5,0,0,1,11.754,11.8Zm.965-2.176a.61.61,0,0,1-.846.206A10.225,10.225,0,0,0,4.016,8.9a.614.614,0,0,1-.767-.415.625.625,0,0,1,.41-.777,11.367,11.367,0,0,1,8.857,1.062.628.628,0,0,1,.2.857ZM12.8,7.361a12.953,12.953,0,0,0-9.16-.924.736.736,0,0,1-.92-.5.75.75,0,0,1,.492-.933C6,4.15,10.629,4.315,13.555,6.076A.752.752,0,0,1,13.813,7.1a.731.731,0,0,1-1.01.261Z" transform="translate(-0.253 -0.277)"/>
</svg>
