<svg xmlns="http://www.w3.org/2000/svg" width="108.03" height="106.552" viewBox="0 0 108.03 106.552">
  <defs>
    <style>
      .cls-1 {
        fill: #564e39;
      }

      .cls-2 {
        fill: #857852;
      }
    </style>
  </defs>
  <g id="triangle" transform="translate(-90.985 -1020.235)">
    <path id="bottom" class="cls-1" d="M29.988,16.375a11,11,0,0,1,19.023,0L69.4,51.475A11,11,0,0,1,59.889,68H19.111A11,11,0,0,1,9.6,51.475Z" transform="matrix(0.848, 0.53, -0.53, 0.848, 132.02, 1027.255)"/>
    <path id="top" class="cls-2" d="M29.988,16.375a11,11,0,0,1,19.023,0L69.4,51.475A11,11,0,0,1,59.889,68H19.111A11,11,0,0,1,9.6,51.475Z" transform="matrix(0.848, 0.53, -0.53, 0.848, 127.02, 1020.235)"/>
  </g>
</svg>
