<svg xmlns="http://www.w3.org/2000/svg" width="35.909" height="34.989" viewBox="0 0 35.909 34.989">
  <defs>
    <style>
      .cls-1 {
        fill: #564e39;
      }

      .cls-2 {
        fill: #857852;
      }
    </style>
  </defs>
  <g id="X" transform="translate(-29.69 -1463.334)">
    <path id="bottom" class="cls-1" d="M4658.218-1342.37l-8.135,8.135a4.022,4.022,0,0,0,0,5.915c2.974,3.184,5.915,0,5.915,0l8.647-8.647,8.647,8.647s3.1,2.87,5.915,0,0-5.915,0-5.915l-8.135-8.135,8.135-8.135a3.909,3.909,0,0,0,0-5.915,3.918,3.918,0,0,0-5.915,0l-8.647,8.647-8.647-8.647a3.773,3.773,0,0,0-5.915,0c-3.134,3.313,0,5.915,0,5.915Z" transform="translate(-4615 2825.228)"/>
    <path id="top" class="cls-2" d="M4658.218-1342.37l-8.135,8.135a4.022,4.022,0,0,0,0,5.915c2.974,3.184,5.915,0,5.915,0l8.647-8.647,8.647,8.647s3.1,2.87,5.915,0,0-5.915,0-5.915l-8.135-8.135,8.135-8.135a3.909,3.909,0,0,0,0-5.915,3.918,3.918,0,0,0-5.915,0l-8.647,8.647-8.647-8.647a3.773,3.773,0,0,0-5.915,0c-3.134,3.313,0,5.915,0,5.915Z" transform="translate(-4619 2821.228)"/>
  </g>
</svg>
